<svg width="23" height="23" viewBox="0 0 23 23" fill="none" xmlns="http://www.w3.org/2000/svg">
<path d="M6.57146 4.10718H20.5357C21.8967 4.10718 23 5.21047 23 6.57146V20.5357C23 21.8967 21.8967 23 20.5357 23H6.57146C5.21047 23 4.10717 21.8967 4.10717 20.5357V6.57146C4.10717 5.21047 5.21047 4.10718 6.57146 4.10718ZM5.75001 20.5358C5.75001 20.9894 6.11778 21.3572 6.57146 21.3572H20.5357C20.9894 21.3572 21.3572 20.9894 21.3572 20.5358V6.57146C21.3572 6.11778 20.9894 5.75002 20.5357 5.75002H6.57146C6.11778 5.75002 5.75001 6.11778 5.75001 6.57146V20.5358Z" fill="#A809FF"/>
<path d="M2.46437 0H17.2501C18.6111 0 19.7144 1.1033 19.7144 2.46428C19.7144 2.91796 19.3466 3.28573 18.8929 3.28573C18.4392 3.28573 18.0715 2.91796 18.0715 2.46428C18.0715 2.01061 17.7038 1.64284 17.2501 1.64284H2.46437C2.01069 1.64284 1.64293 2.01061 1.64293 2.46428V17.25C1.64293 17.7037 2.01069 18.0714 2.46437 18.0714C2.91805 18.0714 3.28582 18.4392 3.28582 18.8929C3.28582 19.3466 2.91805 19.7143 2.46437 19.7143C1.10339 19.7143 8.7738e-05 18.611 8.7738e-05 17.25V2.46428C8.7738e-05 1.1033 1.10339 0 2.46437 0Z" fill="#A809FF"/>
</svg>
